<?xml version="1.0" encoding="UTF-8" standalone="no"?>
<!-- Created with Inkscape (http://www.inkscape.org/) -->
<svg xmlns:svg="http://www.w3.org/2000/svg" xmlns="http://www.w3.org/2000/svg" xmlns:xlink="http://www.w3.org/1999/xlink" version="1.0" width="742.85712" height="161.42857" id="svg2">
  <defs id="defs4">
    <linearGradient id="linearGradient4644">
      <stop style="stop-color: purple; stop-opacity: 1;" offset="0" id="stop4646"/>
      <stop style="stop-color: fuchsia; stop-opacity: 1;" offset="1" id="stop4648"/>
    </linearGradient>
    <linearGradient id="linearGradient4636">
      <stop style="stop-color: navy; stop-opacity: 1;" offset="0" id="stop4638"/>
      <stop style="stop-color: blue; stop-opacity: 1;" offset="1" id="stop4640"/>
    </linearGradient>
    <linearGradient id="linearGradient4628">
      <stop style="stop-color: teal; stop-opacity: 1;" offset="0" id="stop4630"/>
      <stop style="stop-color: rgb(0, 192, 192); stop-opacity: 1;" offset="1" id="stop4632"/>
    </linearGradient>
    <linearGradient id="linearGradient4620">
      <stop style="stop-color: green; stop-opacity: 1;" offset="0" id="stop4622"/>
      <stop style="stop-color: rgb(0, 192, 0); stop-opacity: 1;" offset="1" id="stop4624"/>
    </linearGradient>
    <linearGradient id="linearGradient4612">
      <stop style="stop-color: olive; stop-opacity: 1;" offset="0" id="stop4614"/>
      <stop style="stop-color: rgb(192, 192, 0); stop-opacity: 1;" offset="1" id="stop4616"/>
    </linearGradient>
    <linearGradient id="linearGradient4594">
      <stop style="stop-color: maroon; stop-opacity: 1;" offset="0" id="stop4596"/>
      <stop style="stop-color: red; stop-opacity: 1;" offset="1" id="stop4598"/>
    </linearGradient>
    <linearGradient id="linearGradient2760">
      <stop style="stop-color: red; stop-opacity: 1;" offset="0" id="stop2762"/>
      <stop style="stop-color: yellow; stop-opacity: 1;" offset="0.18512578" id="stop2772"/>
      <stop style="stop-color: lime; stop-opacity: 1;" offset="0.34256288" id="stop2770"/>
      <stop style="stop-color: aqua; stop-opacity: 1;" offset="0.5" id="stop2768"/>
      <stop style="stop-color: blue; stop-opacity: 1;" offset="0.65429997" id="stop2774"/>
      <stop style="stop-color: fuchsia; stop-opacity: 1;" offset="0.8119877" id="stop2776"/>
      <stop style="stop-color: red; stop-opacity: 1;" offset="1" id="stop2764"/>
    </linearGradient>
    <linearGradient x1="82.35714" y1="245.21933" x2="637.64282" y2="245.21933" id="linearGradient2766" xlink:href="#linearGradient2760" gradientUnits="userSpaceOnUse" gradientTransform="matrix(1.26081, 0, 0, 1.04773, -82.0455, 689.011)"/>
    <linearGradient x1="42.677505" y1="1002.8537" x2="42.677505" y2="1030.9336" id="linearGradient4600" xlink:href="#linearGradient4594" gradientUnits="userSpaceOnUse" gradientTransform="translate(-1.01015)"/>
    <linearGradient x1="153.17801" y1="1002.8537" x2="153.17801" y2="1030.9336" id="linearGradient4618" xlink:href="#linearGradient4612" gradientUnits="userSpaceOnUse" gradientTransform="translate(-1.01015)"/>
    <linearGradient x1="263.57779" y1="1002.8537" x2="263.57779" y2="1030.9336" id="linearGradient4626" xlink:href="#linearGradient4620" gradientUnits="userSpaceOnUse" gradientTransform="translate(-1.01015)"/>
    <linearGradient x1="373.57779" y1="1002.8537" x2="373.57779" y2="1030.9336" id="linearGradient4634" xlink:href="#linearGradient4628" gradientUnits="userSpaceOnUse" gradientTransform="translate(-1.01015)"/>
    <linearGradient x1="483.41788" y1="1002.8537" x2="483.41788" y2="1030.9336" id="linearGradient4642" xlink:href="#linearGradient4636" gradientUnits="userSpaceOnUse" gradientTransform="translate(-1.01015)"/>
    <linearGradient x1="592.89807" y1="1002.8537" x2="592.89807" y2="1030.9336" id="linearGradient4650" xlink:href="#linearGradient4644" gradientUnits="userSpaceOnUse" gradientTransform="translate(-1.01015)"/>
    <linearGradient x1="702.89807" y1="1002.8537" x2="702.89807" y2="1030.9336" id="linearGradient4658" xlink:href="#linearGradient4594" gradientUnits="userSpaceOnUse" gradientTransform="translate(-1.01015)"/>
  </defs>
  <g transform="translate(0, -889.505)" id="layer1">
    <rect width="698.85065" height="68.850655" x="22.421661" y="911.50824" style="fill: url(&quot;#linearGradient2766&quot;) rgb(0, 0, 0); fill-opacity: 1; fill-rule: nonzero; stroke: none; stroke-width: 1.14934; stroke-opacity: 1;" id="rect1872"/>
    <path d="M 51.147945,1016.8931 C 51.147924,1021.5065 50.321102,1025 48.667476,1027.3734 C 47.013814,1029.7469 44.680646,1030.9336 41.667964,1030.9336 C 38.627592,1030.9336 36.287303,1029.7469 34.64709,1027.3734 C 33.00687,1025 32.186762,1021.5065 32.186763,1016.8931 C 32.186762,1012.1738 33.033522,1008.6609 34.727046,1006.3541 C 36.420563,1004.0474 38.7342,1002.8806 41.667964,1002.8537 C 44.574038,1002.8538 46.880554,1004.0138 48.58752,1006.334 C 50.29445,1008.6541 51.147924,1012.1738 51.147945,1016.8931 L 51.147945,1016.8931 z M 41.667964,1026.6135 C 43.134423,1026.6135 44.234276,1025.8803 44.967525,1024.4138 C 45.700745,1022.9473 46.067363,1020.4404 46.067378,1016.8931 C 46.067363,1013.3734 45.700745,1010.8736 44.967525,1009.3937 C 44.234276,1007.9138 43.134423,1007.1738 41.667964,1007.1738 C 40.173814,1007.1738 39.066841,1007.9138 38.347041,1009.3937 C 37.627226,1010.8736 37.267323,1013.3734 37.26733,1016.8931 C 37.267323,1020.4404 37.627226,1022.9473 38.347041,1024.4138 C 39.066841,1025.8803 40.173814,1026.6135 41.667964,1026.6135 L 41.667964,1026.6135 z " style="font-size: 12px; font-style: normal; font-weight: normal; fill: url(&quot;#linearGradient4600&quot;) rgb(0, 0, 0); fill-opacity: 1; stroke: none; stroke-width: 1px; stroke-linecap: butt; stroke-linejoin: miter; stroke-opacity: 1; font-family: Bitstream Vera Sans;" id="text2778"/>
    <path d="M 674.8821,1017.6133 L 674.8821,1014.9338 C 674.88209,1014.6669 674.92888,1014.4602 675.02248,1014.3137 C 675.11606,1014.1672 675.33619,1014.094 675.68288,1014.094 L 677.00246,1014.094 C 678.41602,1014.094 679.49614,1013.7872 680.24281,1013.1736 C 680.98946,1012.56 681.3628,1011.6135 681.36281,1010.3342 C 681.33594,1009.4008 681.02914,1008.6208 680.4424,1007.9941 C 679.85564,1007.3675 679.08212,1007.0542 678.12184,1007.0542 C 677.56194,1007.0542 676.98861,1007.2007 676.40187,1007.4936 C 675.81511,1007.7866 675.26864,1008.2 674.76247,1008.7339 C 674.33603,1009.1872 674.08945,1009.4271 674.02272,1009.4535 C 673.95598,1009.4799 673.90919,1009.4932 673.88234,1009.4932 C 673.82862,1009.4932 673.78854,1009.4867 673.7621,1009.4736 C 673.73565,1009.4606 673.66912,1009.4008 673.56252,1009.2942 L 671.36281,1007.3337 C 671.28224,1007.28 671.22873,1007.22 671.20229,1007.1537 C 671.17583,1007.0874 671.16261,1007.0139 671.16261,1006.9333 C 671.16261,1006.8536 671.2092,1006.7203 671.30238,1006.5336 C 671.39556,1006.3468 671.50888,1006.1603 671.64235,1005.9739 C 672.3357,1004.9867 673.28907,1004.2199 674.50246,1003.6735 C 675.71583,1003.127 676.98902,1002.8538 678.32204,1002.8537 C 680.61532,1002.8806 682.4954,1003.5406 683.9623,1004.8337 C 685.42916,1006.1269 686.16259,1007.8534 686.16261,1010.0132 C 686.16259,1011.3999 685.84257,1012.5933 685.20253,1013.5935 C 684.56246,1014.5937 683.62923,1015.3603 682.40285,1015.8933 C 683.9222,1016.3466 685.08187,1017.1732 685.88185,1018.3732 C 686.6818,1019.5731 687.08178,1020.9332 687.0818,1022.4534 C 687.08178,1024.9338 686.26859,1026.9606 684.64223,1028.5337 C 683.01583,1030.1068 680.78907,1030.9067 677.96193,1030.9336 C 676.89584,1030.9336 675.75611,1030.8135 674.54274,1030.5735 C 673.32936,1030.3334 672.2824,1030.0136 671.40187,1029.614 C 670.97544,1029.4537 670.68226,1029.2801 670.52235,1029.0934 C 670.36244,1028.9066 670.32236,1028.6932 670.40211,1028.4531 L 671.24196,1025.4941 C 671.26881,1025.3607 671.3156,1025.2606 671.38234,1025.1938 C 671.44907,1025.1271 671.54917,1025.0937 671.68263,1025.0937 C 671.68263,1025.1206 671.68934,1025.134 671.70277,1025.134 C 671.7162,1025.134 672.33611,1025.3871 673.56252,1025.8933 C 674.22901,1026.2139 674.87558,1026.4408 675.50221,1026.5738 C 676.12883,1026.7069 676.7754,1026.76 677.44191,1026.7331 C 678.77572,1026.76 679.84933,1026.4135 680.66273,1025.6937 C 681.47612,1024.9739 681.88281,1023.8938 681.88283,1022.4534 C 681.88281,1021.0666 681.44946,1020.0533 680.58278,1019.4132 C 679.71607,1018.7732 678.49577,1018.4401 676.92189,1018.4141 L 675.68288,1018.4141 C 675.36223,1018.4141 675.14861,1018.354 675.04201,1018.234 C 674.93539,1018.114 674.88209,1017.9071 674.8821,1017.6133 L 674.8821,1017.6133 z M 708.94704,1004.4932 L 708.10719,1007.2934 C 708.05428,1007.4269 707.98775,1007.527 707.90761,1007.5937 C 707.82743,1007.6605 707.74748,1007.6939 707.66774,1007.6938 C 707.56111,1007.6939 707.39449,1007.6471 707.16786,1007.5535 C 706.9412,1007.4599 706.77458,1007.3866 706.66798,1007.3337 C 706.34733,1007.254 706.05375,1007.1875 705.78725,1007.1341 C 705.52071,1007.0809 705.26742,1007.0542 705.02736,1007.0542 C 703.3208,1007.0803 701.89421,1007.6666 700.74757,1008.8132 C 699.60092,1009.9599 698.7741,1011.64 698.2671,1013.8535 L 698.34767,1013.9341 C 698.93441,1013.1341 699.62777,1012.5407 700.42775,1012.1537 C 701.22771,1011.7667 702.0944,1011.5732 703.02785,1011.5732 C 705.34717,1011.5732 707.14018,1012.4267 708.40688,1014.1337 C 709.67354,1015.8406 710.32031,1018.0808 710.34718,1020.8542 C 710.34716,1023.9475 709.58056,1026.4007 708.04738,1028.2139 C 706.51416,1030.027 704.41415,1030.9336 701.74733,1030.9336 C 700.22714,1030.9067 698.92038,1030.6066 697.82704,1030.0333 C 696.73369,1029.46 695.82732,1028.6134 695.10793,1027.4936 C 694.46746,1026.5602 693.98732,1025.3934 693.6675,1023.9933 C 693.34767,1022.5931 693.18776,1020.9999 693.18776,1019.2136 C 693.18776,1017.0001 693.40769,1014.9534 693.84755,1013.0735 C 694.28741,1011.1936 694.92075,1009.5737 695.74757,1008.2139 C 696.8405,1006.4268 698.19365,1005.0866 699.80702,1004.1935 C 701.42037,1003.3003 703.21379,1002.8538 705.18727,1002.8537 C 705.85376,1002.8538 706.50032,1002.927 707.12697,1003.0735 C 707.75358,1003.22 708.25366,1003.4133 708.62721,1003.6533 C 708.78751,1003.7868 708.89432,1003.9001 708.94765,1003.9933 C 709.00093,1004.0865 709.00073,1004.2531 708.94704,1004.4932 L 708.94704,1004.4932 z M 701.94752,1026.6135 C 702.98755,1026.6135 703.84754,1026.1669 704.52748,1025.2738 C 705.2074,1024.3807 705.54736,1023.0006 705.54738,1021.1338 C 705.52051,1019.3206 705.18705,1017.9807 704.54701,1017.114 C 703.90694,1016.2473 703.05388,1015.8005 701.98781,1015.7737 C 700.76058,1015.7737 699.85381,1016.2536 699.26747,1017.2135 C 698.68112,1018.1734 698.38795,1019.4801 698.38795,1021.1338 C 698.38795,1022.894 698.68112,1024.2474 699.26747,1025.1938 C 699.85381,1026.1403 700.74716,1026.6135 701.94752,1026.6135 L 701.94752,1026.6135 z M 733.41359,1016.8931 C 733.41357,1021.5065 732.58675,1025 730.93312,1027.3734 C 729.27946,1029.7469 726.94629,1030.9336 723.93361,1030.9336 C 720.89324,1030.9336 718.55295,1029.7469 716.91273,1027.3734 C 715.27251,1025 714.45241,1021.5065 714.45241,1016.8931 C 714.45241,1012.1738 715.29917,1008.6609 716.99269,1006.3541 C 718.68621,1004.0474 720.99984,1002.8806 723.93361,1002.8537 C 726.83968,1002.8538 729.1462,1004.0138 730.85316,1006.334 C 732.56009,1008.6541 733.41357,1012.1738 733.41359,1016.8931 L 733.41359,1016.8931 z M 723.93361,1026.6135 C 725.40007,1026.6135 726.49992,1025.8803 727.23317,1024.4138 C 727.96639,1022.9473 728.33301,1020.4404 728.33302,1016.8931 C 728.33301,1013.3734 727.96639,1010.8736 727.23317,1009.3937 C 726.49992,1007.9138 725.40007,1007.1738 723.93361,1007.1738 C 722.43946,1007.1738 721.33249,1007.9138 720.61269,1009.3937 C 719.89287,1010.8736 719.53297,1013.3734 719.53297,1016.8931 C 719.53297,1020.4404 719.89287,1022.9473 720.61269,1024.4138 C 721.33249,1025.8803 722.43946,1026.6135 723.93361,1026.6135 L 723.93361,1026.6135 z " style="font-size: 12px; font-style: normal; font-weight: normal; fill: url(&quot;#linearGradient4658&quot;) rgb(0, 0, 0); fill-opacity: 1; stroke: none; stroke-width: 1px; stroke-linecap: butt; stroke-linejoin: miter; stroke-opacity: 1; font-family: Bitstream Vera Sans;" id="text2790"/>
    <path d="M 564.8821,1017.6133 L 564.8821,1014.9338 C 564.88209,1014.6669 564.92888,1014.4602 565.02248,1014.3137 C 565.11606,1014.1672 565.33619,1014.094 565.68288,1014.094 L 567.00246,1014.094 C 568.41602,1014.094 569.49614,1013.7872 570.24281,1013.1736 C 570.98946,1012.56 571.3628,1011.6135 571.36281,1010.3342 C 571.33594,1009.4008 571.02914,1008.6208 570.4424,1007.9941 C 569.85564,1007.3675 569.08212,1007.0542 568.12184,1007.0542 C 567.56194,1007.0542 566.98861,1007.2007 566.40187,1007.4936 C 565.81511,1007.7866 565.26864,1008.2 564.76247,1008.7339 C 564.33603,1009.1872 564.08945,1009.4271 564.02272,1009.4535 C 563.95598,1009.4799 563.90919,1009.4932 563.88234,1009.4932 C 563.82862,1009.4932 563.78854,1009.4867 563.7621,1009.4736 C 563.73565,1009.4606 563.66912,1009.4008 563.56252,1009.2942 L 561.36281,1007.3337 C 561.28224,1007.28 561.22873,1007.22 561.20229,1007.1537 C 561.17583,1007.0874 561.16261,1007.0139 561.16261,1006.9333 C 561.16261,1006.8536 561.2092,1006.7203 561.30238,1006.5336 C 561.39556,1006.3468 561.50888,1006.1603 561.64235,1005.9739 C 562.3357,1004.9867 563.28907,1004.2199 564.50246,1003.6735 C 565.71583,1003.127 566.98902,1002.8538 568.32204,1002.8537 C 570.61532,1002.8806 572.4954,1003.5406 573.9623,1004.8337 C 575.42916,1006.1269 576.16259,1007.8534 576.16261,1010.0132 C 576.16259,1011.3999 575.84257,1012.5933 575.20253,1013.5935 C 574.56246,1014.5937 573.62923,1015.3603 572.40285,1015.8933 C 573.9222,1016.3466 575.08187,1017.1732 575.88185,1018.3732 C 576.6818,1019.5731 577.08178,1020.9332 577.0818,1022.4534 C 577.08178,1024.9338 576.26859,1026.9606 574.64223,1028.5337 C 573.01583,1030.1068 570.78907,1030.9067 567.96193,1030.9336 C 566.89584,1030.9336 565.75611,1030.8135 564.54274,1030.5735 C 563.32936,1030.3334 562.2824,1030.0136 561.40187,1029.614 C 560.97544,1029.4537 560.68226,1029.2801 560.52235,1029.0934 C 560.36244,1028.9066 560.32236,1028.6932 560.40211,1028.4531 L 561.24196,1025.4941 C 561.26881,1025.3607 561.3156,1025.2606 561.38234,1025.1938 C 561.44907,1025.1271 561.54917,1025.0937 561.68263,1025.0937 C 561.68263,1025.1206 561.68934,1025.134 561.70277,1025.134 C 561.7162,1025.134 562.33611,1025.3871 563.56252,1025.8933 C 564.22901,1026.2139 564.87558,1026.4408 565.50221,1026.5738 C 566.12883,1026.7069 566.7754,1026.76 567.44191,1026.7331 C 568.77572,1026.76 569.84933,1026.4135 570.66273,1025.6937 C 571.47612,1024.9739 571.88281,1023.8938 571.88283,1022.4534 C 571.88281,1021.0666 571.44946,1020.0533 570.58278,1019.4132 C 569.71607,1018.7732 568.49577,1018.4401 566.92189,1018.4141 L 565.68288,1018.4141 C 565.36223,1018.4141 565.14861,1018.354 565.04201,1018.234 C 564.93539,1018.114 564.88209,1017.9071 564.8821,1017.6133 L 564.8821,1017.6133 z M 601.14796,1016.8931 C 601.14794,1021.5065 600.32112,1025 598.6675,1027.3734 C 597.01383,1029.7469 594.68067,1030.9336 591.66798,1030.9336 C 588.62761,1030.9336 586.28732,1029.7469 584.64711,1027.3734 C 583.00689,1025 582.18678,1021.5065 582.18678,1016.8931 C 582.18678,1012.1738 583.03354,1008.6609 584.72707,1006.3541 C 586.42058,1004.0474 588.73422,1002.8806 591.66798,1002.8537 C 594.57406,1002.8538 596.88057,1004.0138 598.58754,1006.334 C 600.29447,1008.6541 601.14794,1012.1738 601.14796,1016.8931 L 601.14796,1016.8931 z M 591.66798,1026.6135 C 593.13444,1026.6135 594.2343,1025.8803 594.96754,1024.4138 C 595.70076,1022.9473 596.06738,1020.4404 596.0674,1016.8931 C 596.06738,1013.3734 595.70076,1010.8736 594.96754,1009.3937 C 594.2343,1007.9138 593.13444,1007.1738 591.66798,1007.1738 C 590.17383,1007.1738 589.06686,1007.9138 588.34706,1009.3937 C 587.62725,1010.8736 587.26734,1013.3734 587.26735,1016.8931 C 587.26734,1020.4404 587.62725,1022.9473 588.34706,1024.4138 C 589.06686,1025.8803 590.17383,1026.6135 591.66798,1026.6135 L 591.66798,1026.6135 z M 623.41359,1016.8931 C 623.41357,1021.5065 622.58675,1025 620.93312,1027.3734 C 619.27946,1029.7469 616.94629,1030.9336 613.93361,1030.9336 C 610.89324,1030.9336 608.55295,1029.7469 606.91273,1027.3734 C 605.27251,1025 604.45241,1021.5065 604.45241,1016.8931 C 604.45241,1012.1738 605.29917,1008.6609 606.99269,1006.3541 C 608.68621,1004.0474 610.99984,1002.8806 613.93361,1002.8537 C 616.83968,1002.8538 619.1462,1004.0138 620.85316,1006.334 C 622.56009,1008.6541 623.41357,1012.1738 623.41359,1016.8931 L 623.41359,1016.8931 z M 613.93361,1026.6135 C 615.40007,1026.6135 616.49992,1025.8803 617.23317,1024.4138 C 617.96639,1022.9473 618.33301,1020.4404 618.33302,1016.8931 C 618.33301,1013.3734 617.96639,1010.8736 617.23317,1009.3937 C 616.49992,1007.9138 615.40007,1007.1738 613.93361,1007.1738 C 612.43946,1007.1738 611.33249,1007.9138 610.61269,1009.3937 C 609.89287,1010.8736 609.53297,1013.3734 609.53297,1016.8931 C 609.53297,1020.4404 609.89287,1022.9473 610.61269,1024.4138 C 611.33249,1025.8803 612.43946,1026.6135 613.93361,1026.6135 L 613.93361,1026.6135 z " style="font-size: 12px; font-style: normal; font-weight: normal; fill: url(&quot;#linearGradient4650&quot;) rgb(0, 0, 0); fill-opacity: 1; stroke: none; stroke-width: 1px; stroke-linecap: butt; stroke-linejoin: miter; stroke-opacity: 1; font-family: Bitstream Vera Sans;" id="text2794"/>
    <path d="M 467.32228,1026.4939 L 467.32228,1029.4138 C 467.32226,1029.7068 467.25553,1029.92 467.12209,1030.0535 C 466.9886,1030.1869 466.78841,1030.2537 466.5215,1030.2537 L 452.0818,1030.2537 C 451.89544,1030.2537 451.76218,1030.2071 451.68202,1030.1139 C 451.60186,1030.0207 451.56178,1029.8406 451.56178,1029.5737 C 451.56178,1028.2407 451.63502,1027.0874 451.78151,1026.1136 C 451.92799,1025.1399 452.14812,1024.2934 452.44191,1023.574 C 452.78858,1022.6674 453.32854,1021.794 454.06178,1020.9537 C 454.79501,1020.1135 456.00147,1019.0403 457.68117,1017.7341 C 459.76123,1016.1073 461.1213,1014.8073 461.76137,1013.834 C 462.40141,1012.8607 462.73486,1011.7474 462.76173,1010.4941 C 462.76172,1009.4273 462.44841,1008.6139 461.82179,1008.0539 C 461.19515,1007.4941 460.41512,1007.2007 459.4817,1007.1738 C 458.60197,1007.1738 457.87545,1007.4005 457.30214,1007.8537 C 456.72881,1008.3071 456.18865,1009.0802 455.68166,1010.1731 C 455.38868,1010.7867 455.1954,1011.1269 455.10182,1011.1936 C 455.00823,1011.2603 454.92156,1011.2937 454.84181,1011.2937 C 454.78809,1011.2937 454.74801,1011.2937 454.72157,1011.2937 C 454.69512,1011.2937 454.58871,1011.2538 454.40236,1011.1741 L 451.84132,1010.2134 C 451.68182,1010.1605 451.5687,1010.0872 451.50197,1009.9936 C 451.43523,1009.9001 451.40187,1009.7735 451.40187,1009.614 C 451.40187,1009.2934 451.48854,1008.8865 451.66188,1008.3933 C 451.83522,1007.9002 452.05535,1007.4404 452.32228,1007.0139 C 453.06853,1005.7607 454.08843,1004.754 455.38197,1003.9939 C 456.6755,1003.2338 458.20199,1002.8538 459.96144,1002.8537 C 462.33529,1002.8538 464.19543,1003.5138 465.54189,1004.8337 C 466.8883,1006.1537 467.56152,1007.9872 467.56154,1010.3342 C 467.56152,1012.2003 467.17496,1013.8134 466.40187,1015.1737 C 465.62874,1016.534 464.05526,1018.1207 461.68141,1019.9338 L 459.96144,1021.2534 C 458.94825,1022.0534 458.22173,1022.8 457.78188,1023.4934 C 457.34201,1024.1868 457.12208,1024.907 457.12209,1025.654 L 466.5215,1025.654 C 466.76155,1025.654 466.94832,1025.7006 467.0818,1025.7938 C 467.21525,1025.887 467.29541,1026.1204 467.32228,1026.4939 L 467.32228,1026.4939 z M 488.22682,1024.9741 L 488.22682,1030.134 C 488.2268,1030.4001 488.18021,1030.5999 488.08705,1030.7334 C 487.99385,1030.8669 487.77392,1030.9336 487.42726,1030.9336 L 483.94704,1030.9336 C 483.65405,1030.9336 483.44084,1030.887 483.30739,1030.7938 C 483.17391,1030.7006 483.12061,1030.5206 483.14748,1030.2537 L 483.14748,1024.9741 L 473.38795,1024.9741 C 473.06731,1025.0002 472.84698,1024.9666 472.72694,1024.8734 C 472.60691,1024.7802 472.54689,1024.5469 472.54689,1024.1733 L 472.54689,1019.9741 L 482.50783,1003.3738 C 482.66732,1003.1069 482.77373,1002.9602 482.82704,1002.9337 C 482.88033,1002.9073 482.94727,1002.8806 483.02785,1002.8537 C 483.05388,1002.8538 483.08032,1002.8538 483.10719,1002.8537 C 483.13404,1002.8538 483.16089,1002.8538 483.18776,1002.8537 C 483.18775,1002.8806 483.19426,1002.8941 483.20729,1002.894 C 483.2203,1002.8941 483.3204,1002.9205 483.50758,1002.9734 L 484.82716,1003.5337 L 485.98683,1004.0134 C 486.22689,1004.1469 486.38029,1004.2537 486.44704,1004.3339 C 486.51375,1004.414 486.54712,1004.494 486.54713,1004.5737 C 486.54712,1004.6535 486.52718,1004.7335 486.48732,1004.8136 C 486.44743,1004.8938 486.41406,1004.9737 486.38722,1005.0535 L 477.02687,1020.9739 L 483.14748,1020.9739 L 483.78712,1014.5334 C 483.81397,1014.1868 483.89413,1013.9668 484.0276,1013.8736 C 484.16105,1013.7805 484.36084,1013.7339 484.62697,1013.7339 L 487.42726,1013.7339 C 487.72103,1013.7607 487.92122,1013.834 488.02785,1013.9536 C 488.13444,1014.0732 488.20076,1014.28 488.22682,1014.5737 L 488.22682,1020.9739 L 490.46681,1020.9739 C 490.89404,1020.9739 491.14103,1021.0538 491.20778,1021.2137 C 491.27449,1021.3737 491.30786,1021.6135 491.30788,1021.9333 L 491.30788,1024.1733 C 491.281,1024.5469 491.20755,1024.7737 491.08754,1024.8539 C 490.96748,1024.934 490.76057,1024.9741 490.46681,1024.9741 L 488.22682,1024.9741 z M 513.41359,1016.8931 C 513.41357,1021.5065 512.58675,1025 510.93312,1027.3734 C 509.27946,1029.7469 506.94629,1030.9336 503.93361,1030.9336 C 500.89324,1030.9336 498.55295,1029.7469 496.91273,1027.3734 C 495.27251,1025 494.45241,1021.5065 494.45241,1016.8931 C 494.45241,1012.1738 495.29917,1008.6609 496.99269,1006.3541 C 498.68621,1004.0474 500.99984,1002.8806 503.93361,1002.8537 C 506.83968,1002.8538 509.1462,1004.0138 510.85316,1006.334 C 512.56009,1008.6541 513.41357,1012.1738 513.41359,1016.8931 L 513.41359,1016.8931 z M 503.93361,1026.6135 C 505.40007,1026.6135 506.49992,1025.8803 507.23317,1024.4138 C 507.96639,1022.9473 508.33301,1020.4404 508.33302,1016.8931 C 508.33301,1013.3734 507.96639,1010.8736 507.23317,1009.3937 C 506.49992,1007.9138 505.40007,1007.1738 503.93361,1007.1738 C 502.43946,1007.1738 501.33249,1007.9138 500.61269,1009.3937 C 499.89287,1010.8736 499.53297,1013.3734 499.53297,1016.8931 C 499.53297,1020.4404 499.89287,1022.9473 500.61269,1024.4138 C 501.33249,1025.8803 502.43946,1026.6135 503.93361,1026.6135 L 503.93361,1026.6135 z " style="font-size: 12px; font-style: normal; font-weight: normal; fill: url(&quot;#linearGradient4642&quot;) rgb(0, 0, 0); fill-opacity: 1; stroke: none; stroke-width: 1px; stroke-linecap: butt; stroke-linejoin: miter; stroke-opacity: 1; font-family: Bitstream Vera Sans;" id="text2798"/>
    <path d="M 357.0818,1027.0933 L 357.0818,1029.6933 C 357.05493,1029.9603 357.00162,1030.1204 356.92189,1030.1737 C 356.84212,1030.227 356.70866,1030.2537 356.5215,1030.2537 L 344.24123,1030.2537 C 344.00196,1030.2537 343.84225,1030.2136 343.7621,1030.1334 C 343.68194,1030.0533 343.65528,1029.9066 343.68214,1029.6933 L 343.68214,1027.0933 C 343.68214,1026.88 343.72201,1026.7336 343.80177,1026.6538 C 343.88152,1026.574 344.028,1026.5342 344.24123,1026.5342 L 348.28175,1026.5342 L 348.28175,1009.5737 L 343.96169,1012.2532 C 343.80136,1012.3598 343.69455,1012.4198 343.64125,1012.4332 C 343.58794,1012.4467 343.53484,1012.4534 343.48195,1012.4534 C 343.37534,1012.4534 343.28867,1012.4334 343.22194,1012.3935 C 343.1552,1012.3537 343.0551,1012.2003 342.92165,1011.9333 L 341.88161,1010.134 C 341.80185,1010.0535 341.75526,1009.9733 341.74184,1009.8935 C 341.72841,1009.8138 341.72169,1009.7206 341.72169,1009.614 C 341.72169,1009.5335 341.74834,1009.4466 341.80165,1009.3534 C 341.85495,1009.2602 341.98821,1009.1335 342.20143,1008.9731 L 349.76125,1003.5337 L 352.56154,1003.5337 C 352.82845,1003.5337 353.02865,1003.5803 353.16212,1003.6735 C 353.29557,1003.7667 353.3623,1003.9601 353.36232,1004.2539 L 353.36232,1026.5342 L 356.5215,1026.5342 C 356.70866,1026.5602 356.84212,1026.5999 356.92189,1026.6532 C 357.00162,1026.7065 357.05493,1026.8532 357.0818,1027.0933 L 357.0818,1027.0933 z M 375.46681,1016.0935 C 377.2539,1016.7869 378.6274,1017.7602 379.5873,1019.0134 C 380.54715,1020.2667 381.02709,1021.6534 381.02711,1023.1736 C 381.02709,1025.3334 380.18054,1027.1667 378.48744,1028.6735 C 376.79431,1030.1802 374.50773,1030.9336 371.6277,1030.9336 C 368.69394,1030.9336 366.40044,1030.2203 364.74721,1028.7937 C 363.09397,1027.3671 362.26735,1025.5336 362.26735,1023.2932 C 362.26735,1022.1466 362.52064,1021.0866 363.02724,1020.1133 C 363.53383,1019.14 364.26726,1018.3201 365.22755,1017.6536 C 365.54737,1017.4135 365.96729,1017.1602 366.48732,1016.8937 C 367.00733,1016.6272 367.49399,1016.4003 367.94728,1016.2131 C 367.52084,1016.0536 367.10763,1015.8471 366.70766,1015.5936 C 366.30767,1015.3401 365.94776,1015.0803 365.62794,1014.8142 C 364.80112,1014.1738 364.20094,1013.4468 363.82741,1012.6334 C 363.45387,1011.82 363.2671,1010.9601 363.2671,1010.0535 C 363.2671,1007.9734 364.07378,1006.2601 365.68715,1004.9137 C 367.3005,1003.5673 369.29411,1002.8806 371.66798,1002.8537 C 374.17448,1002.8806 376.18762,1003.5939 377.70741,1004.9936 C 379.22717,1006.3934 379.98706,1008.0003 379.98708,1009.8142 C 379.9602,1010.8005 379.74678,1011.7071 379.34682,1012.5339 C 378.94681,1013.3608 378.38712,1014.0671 377.66774,1014.6531 C 377.37394,1014.92 377.02706,1015.1802 376.62709,1015.4337 C 376.22709,1015.6872 375.84033,1015.9071 375.46681,1016.0935 L 375.46681,1016.0935 z M 371.8279,1014.2942 C 372.94768,1013.8141 373.74093,1013.2672 374.20766,1012.6536 C 374.67436,1012.04 374.90772,1011.2799 374.90773,1010.3733 C 374.88086,1009.4399 374.56734,1008.6533 373.96718,1008.0137 C 373.36699,1007.374 372.58716,1007.0542 371.6277,1007.0542 C 370.69426,1007.0803 369.91423,1007.4001 369.28761,1008.0137 C 368.66098,1008.6273 368.34766,1009.4008 368.34767,1010.3342 C 368.34766,1011.1602 368.66769,1011.9334 369.30775,1012.6536 C 369.9478,1013.3738 370.78785,1013.9207 371.8279,1014.2942 L 371.8279,1014.2942 z M 371.38722,1018.0942 C 370.13396,1018.6273 369.14743,1019.3339 368.42763,1020.214 C 367.70781,1021.0941 367.34791,1022.0273 367.34792,1023.0137 C 367.32105,1024.1066 367.68767,1024.9997 368.44777,1025.6931 C 369.20785,1026.3865 370.26783,1026.7331 371.6277,1026.7331 C 372.9607,1026.7331 374.01396,1026.3732 374.78749,1025.6534 C 375.56099,1024.9336 375.94775,1024.0671 375.94777,1023.0539 C 375.94775,1022.0408 375.5144,1021.0941 374.64772,1020.214 C 373.78101,1019.3339 372.69418,1018.6273 371.38722,1018.0942 L 371.38722,1018.0942 z M 403.41359,1016.8931 C 403.41357,1021.5065 402.58675,1025 400.93312,1027.3734 C 399.27946,1029.7469 396.94629,1030.9336 393.93361,1030.9336 C 390.89324,1030.9336 388.55295,1029.7469 386.91273,1027.3734 C 385.27251,1025 384.45241,1021.5065 384.45241,1016.8931 C 384.45241,1012.1738 385.29917,1008.6609 386.99269,1006.3541 C 388.68621,1004.0474 390.99984,1002.8806 393.93361,1002.8537 C 396.83968,1002.8538 399.1462,1004.0138 400.85316,1006.334 C 402.56009,1008.6541 403.41357,1012.1738 403.41359,1016.8931 L 403.41359,1016.8931 z M 393.93361,1026.6135 C 395.40007,1026.6135 396.49992,1025.8803 397.23317,1024.4138 C 397.96639,1022.9473 398.33301,1020.4404 398.33302,1016.8931 C 398.33301,1013.3734 397.96639,1010.8736 397.23317,1009.3937 C 396.49992,1007.9138 395.40007,1007.1738 393.93361,1007.1738 C 392.43946,1007.1738 391.33249,1007.9138 390.61269,1009.3937 C 389.89287,1010.8736 389.53297,1013.3734 389.53297,1016.8931 C 389.53297,1020.4404 389.89287,1022.9473 390.61269,1024.4138 C 391.33249,1025.8803 392.43946,1026.6135 393.93361,1026.6135 L 393.93361,1026.6135 z " style="font-size: 12px; font-style: normal; font-weight: normal; fill: url(&quot;#linearGradient4634&quot;) rgb(0, 0, 0); fill-opacity: 1; stroke: none; stroke-width: 1px; stroke-linecap: butt; stroke-linejoin: miter; stroke-opacity: 1; font-family: Bitstream Vera Sans;" id="text2802"/>
    <path d="M 247.0818,1027.0933 L 247.0818,1029.6933 C 247.05493,1029.9603 247.00162,1030.1204 246.92189,1030.1737 C 246.84212,1030.227 246.70866,1030.2537 246.5215,1030.2537 L 234.24123,1030.2537 C 234.00196,1030.2537 233.84225,1030.2136 233.7621,1030.1334 C 233.68194,1030.0533 233.65528,1029.9066 233.68214,1029.6933 L 233.68214,1027.0933 C 233.68214,1026.88 233.72201,1026.7336 233.80177,1026.6538 C 233.88152,1026.574 234.028,1026.5342 234.24123,1026.5342 L 238.28175,1026.5342 L 238.28175,1009.5737 L 233.96169,1012.2532 C 233.80136,1012.3598 233.69455,1012.4198 233.64125,1012.4332 C 233.58794,1012.4467 233.53484,1012.4534 233.48195,1012.4534 C 233.37534,1012.4534 233.28867,1012.4334 233.22194,1012.3935 C 233.1552,1012.3537 233.0551,1012.2003 232.92165,1011.9333 L 231.88161,1010.134 C 231.80185,1010.0535 231.75526,1009.9733 231.74184,1009.8935 C 231.72841,1009.8138 231.72169,1009.7206 231.72169,1009.614 C 231.72169,1009.5335 231.74834,1009.4466 231.80165,1009.3534 C 231.85495,1009.2602 231.98821,1009.1335 232.20143,1008.9731 L 239.76125,1003.5337 L 242.56154,1003.5337 C 242.82845,1003.5337 243.02865,1003.5803 243.16212,1003.6735 C 243.29557,1003.7667 243.3623,1003.9601 243.36232,1004.2539 L 243.36232,1026.5342 L 246.5215,1026.5342 C 246.70866,1026.5602 246.84212,1026.5999 246.92189,1026.6532 C 247.00162,1026.7065 247.05493,1026.8532 247.0818,1027.0933 L 247.0818,1027.0933 z M 269.58791,1026.4939 L 269.58791,1029.4138 C 269.58789,1029.7068 269.52116,1029.92 269.38771,1030.0535 C 269.25423,1030.1869 269.05403,1030.2537 268.78712,1030.2537 L 254.34743,1030.2537 C 254.16106,1030.2537 254.0278,1030.2071 253.94765,1030.1139 C 253.86748,1030.0207 253.8274,1029.8406 253.82741,1029.5737 C 253.8274,1028.2407 253.90065,1027.0874 254.04713,1026.1136 C 254.19362,1025.1399 254.41375,1024.2934 254.70753,1023.574 C 255.05421,1022.6674 255.59417,1021.794 256.32741,1020.9537 C 257.06064,1020.1135 258.2671,1019.0403 259.94679,1017.7341 C 262.02686,1016.1073 263.38692,1014.8073 264.02699,1013.834 C 264.66703,1012.8607 265.00049,1011.7474 265.02736,1010.4941 C 265.02734,1009.4273 264.71403,1008.6139 264.08742,1008.0539 C 263.46078,1007.4941 262.68075,1007.2007 261.74733,1007.1738 C 260.8676,1007.1738 260.14108,1007.4005 259.56776,1007.8537 C 258.99443,1008.3071 258.45427,1009.0802 257.94728,1010.1731 C 257.6543,1010.7867 257.46103,1011.1269 257.36745,1011.1936 C 257.27385,1011.2603 257.18718,1011.2937 257.10744,1011.2937 C 257.05372,1011.2937 257.01364,1011.2937 256.9872,1011.2937 C 256.96074,1011.2937 256.85434,1011.2538 256.66798,1011.1741 L 254.10695,1010.2134 C 253.94744,1010.1605 253.83432,1010.0872 253.76759,1009.9936 C 253.70086,1009.9001 253.66749,1009.7735 253.6675,1009.614 C 253.66749,1009.2934 253.75416,1008.8865 253.92751,1008.3933 C 254.10084,1007.9002 254.32097,1007.4404 254.58791,1007.0139 C 255.33416,1005.7607 256.35405,1004.754 257.6476,1003.9939 C 258.94113,1003.2338 260.46762,1002.8538 262.22707,1002.8537 C 264.60091,1002.8538 266.46106,1003.5138 267.80751,1004.8337 C 269.15393,1006.1537 269.82714,1007.9872 269.82716,1010.3342 C 269.82714,1012.2003 269.44059,1013.8134 268.6675,1015.1737 C 267.89437,1016.534 266.32088,1018.1207 263.94704,1019.9338 L 262.22707,1021.2534 C 261.21387,1022.0534 260.48735,1022.8 260.0475,1023.4934 C 259.60763,1024.1868 259.3877,1024.907 259.38771,1025.654 L 268.78712,1025.654 C 269.02718,1025.654 269.21395,1025.7006 269.34743,1025.7938 C 269.48087,1025.887 269.56103,1026.1204 269.58791,1026.4939 L 269.58791,1026.4939 z M 293.41359,1016.8931 C 293.41357,1021.5065 292.58675,1025 290.93312,1027.3734 C 289.27946,1029.7469 286.94629,1030.9336 283.93361,1030.9336 C 280.89324,1030.9336 278.55295,1029.7469 276.91273,1027.3734 C 275.27251,1025 274.45241,1021.5065 274.45241,1016.8931 C 274.45241,1012.1738 275.29917,1008.6609 276.99269,1006.3541 C 278.68621,1004.0474 280.99984,1002.8806 283.93361,1002.8537 C 286.83968,1002.8538 289.1462,1004.0138 290.85316,1006.334 C 292.56009,1008.6541 293.41357,1012.1738 293.41359,1016.8931 L 293.41359,1016.8931 z M 283.93361,1026.6135 C 285.40007,1026.6135 286.49992,1025.8803 287.23317,1024.4138 C 287.96639,1022.9473 288.33301,1020.4404 288.33302,1016.8931 C 288.33301,1013.3734 287.96639,1010.8736 287.23317,1009.3937 C 286.49992,1007.9138 285.40007,1007.1738 283.93361,1007.1738 C 282.43946,1007.1738 281.33249,1007.9138 280.61269,1009.3937 C 279.89287,1010.8736 279.53297,1013.3734 279.53297,1016.8931 C 279.53297,1020.4404 279.89287,1022.9473 280.61269,1024.4138 C 281.33249,1025.8803 282.43946,1026.6135 283.93361,1026.6135 L 283.93361,1026.6135 z " style="font-size: 12px; font-style: normal; font-weight: normal; fill: url(&quot;#linearGradient4626&quot;) rgb(0, 0, 0); fill-opacity: 1; stroke: none; stroke-width: 1px; stroke-linecap: butt; stroke-linejoin: miter; stroke-opacity: 1; font-family: Bitstream Vera Sans;" id="text2806"/>
    <path d="M 147.81422,1004.4932 L 146.97438,1007.2934 C 146.92147,1007.4269 146.85494,1007.527 146.7748,1007.5937 C 146.69462,1007.6605 146.61466,1007.6939 146.53493,1007.6938 C 146.4283,1007.6939 146.26168,1007.6471 146.03505,1007.5535 C 145.80839,1007.4599 145.64176,1007.3866 145.53517,1007.3337 C 145.21452,1007.254 144.92094,1007.1875 144.65443,1007.1341 C 144.3879,1007.0809 144.1346,1007.0542 143.89455,1007.0542 C 142.18799,1007.0803 140.7614,1007.6666 139.61476,1008.8132 C 138.46811,1009.9599 137.64128,1011.64 137.13429,1013.8535 L 137.21486,1013.9341 C 137.8016,1013.1341 138.49496,1012.5407 139.29494,1012.1537 C 140.09489,1011.7667 140.96159,1011.5732 141.89503,1011.5732 C 144.21436,1011.5732 146.00736,1012.4267 147.27406,1014.1337 C 148.54073,1015.8406 149.1875,1018.0808 149.21437,1020.8542 C 149.21435,1023.9475 148.44775,1026.4007 146.91457,1028.2139 C 145.38135,1030.027 143.28133,1030.9336 140.61452,1030.9336 C 139.09433,1030.9067 137.78756,1030.6066 136.69423,1030.0333 C 135.60088,1029.46 134.69451,1028.6134 133.97511,1027.4936 C 133.33465,1026.5602 132.8545,1025.3934 132.53468,1023.9933 C 132.21486,1022.5931 132.05494,1020.9999 132.05495,1019.2136 C 132.05494,1017.0001 132.27487,1014.9534 132.71474,1013.0735 C 133.15459,1011.1936 133.78793,1009.5737 134.61476,1008.2139 C 135.70769,1006.4268 137.06084,1005.0866 138.67421,1004.1935 C 140.28756,1003.3003 142.08098,1002.8538 144.05446,1002.8537 C 144.72095,1002.8538 145.36751,1002.927 145.99416,1003.0735 C 146.62077,1003.22 147.12085,1003.4133 147.4944,1003.6533 C 147.6547,1003.7868 147.76151,1003.9001 147.81483,1003.9933 C 147.86812,1004.0865 147.86792,1004.2531 147.81422,1004.4932 L 147.81422,1004.4932 z M 140.81471,1026.6135 C 141.85474,1026.6135 142.71472,1026.1669 143.39467,1025.2738 C 144.07459,1024.3807 144.41455,1023.0006 144.41457,1021.1338 C 144.3877,1019.3206 144.05424,1017.9807 143.4142,1017.114 C 142.77413,1016.2473 141.92106,1015.8005 140.855,1015.7737 C 139.62777,1015.7737 138.72099,1016.2536 138.13466,1017.2135 C 137.54831,1018.1734 137.25513,1019.4801 137.25514,1021.1338 C 137.25513,1022.894 137.54831,1024.2474 138.13466,1025.1938 C 138.72099,1026.1403 139.61434,1026.6135 140.81471,1026.6135 L 140.81471,1026.6135 z M 172.28078,1016.8931 C 172.28076,1021.5065 171.45393,1025 169.80031,1027.3734 C 168.14665,1029.7469 165.81348,1030.9336 162.8008,1030.9336 C 159.76042,1030.9336 157.42013,1029.7469 155.77992,1027.3734 C 154.1397,1025 153.31959,1021.5065 153.3196,1016.8931 C 153.31959,1012.1738 154.16635,1008.6609 155.85988,1006.3541 C 157.55339,1004.0474 159.86703,1002.8806 162.8008,1002.8537 C 165.70687,1002.8538 168.01339,1004.0138 169.72035,1006.334 C 171.42728,1008.6541 172.28076,1012.1738 172.28078,1016.8931 L 172.28078,1016.8931 z M 162.8008,1026.6135 C 164.26726,1026.6135 165.36711,1025.8803 166.10036,1024.4138 C 166.83358,1022.9473 167.20019,1020.4404 167.20021,1016.8931 C 167.20019,1013.3734 166.83358,1010.8736 166.10036,1009.3937 C 165.36711,1007.9138 164.26726,1007.1738 162.8008,1007.1738 C 161.30665,1007.1738 160.19967,1007.9138 159.47987,1009.3937 C 158.76006,1010.8736 158.40015,1013.3734 158.40016,1016.8931 C 158.40015,1020.4404 158.76006,1022.9473 159.47987,1024.4138 C 160.19967,1025.8803 161.30665,1026.6135 162.8008,1026.6135 L 162.8008,1026.6135 z " style="font-size: 12px; font-style: normal; font-weight: normal; fill: url(&quot;#linearGradient4618&quot;) rgb(0, 0, 0); fill-opacity: 1; stroke: none; stroke-width: 1px; stroke-linecap: butt; stroke-linejoin: miter; stroke-opacity: 1; font-family: Bitstream Vera Sans;" id="text2810"/>
  </g>
</svg>